
        <svg xmlns="http://www.w3.org/2000/svg" xmlns:xlink="http://www.w3.org/1999/xlink" version="1.1" width="3149.7241922773837" height="815.244971779552" viewBox="0 0 3149.7241922773837 815.244971779552">
			
			<g transform="scale(7.486209613869188) translate(10, 10)">
				<defs id="SvgjsDefs5807"/><g id="SvgjsG5808" featureKey="symbolGroupContainer" transform="matrix(0.8393662159122045,0,0,0.8393662159122045,0.021057212200723107,0.000007109642174959274)" fill="#fff"><path xmlns="http://www.w3.org/2000/svg" d="M101.3 44.9l-.5-2.1a48.1 48.1 0 0 0-1.3-6.1c-.3-1.1-.7-2.2-1.1-3.3l-.6-1.6-.7-1.6A50.9 50.9 0 0 0 78.7 8.5a50.5 50.5 0 0 0-20.6-8 55.7 55.7 0 0 0-7.4-.5A50.7 50.7 0 0 0 4.3 30.2l-.7 1.6-.6 1.6c-.4 1.1-.8 2.2-1.1 3.3a50.1 50.1 0 0 0-1.4 6.7 51.4 51.4 0 0 0-.2 13.1 53 53 0 0 0 1.4 7.3l.3 1.5a50.6 50.6 0 0 0 5 13.9 52.4 52.4 0 0 0 4 6.3 55.9 55.9 0 0 0 4.9 5.6A50.7 50.7 0 0 0 70 102.5l1.6-.7 1.6-.7 3.1-1.6a50.1 50.1 0 0 0 5.7-3.6 51.5 51.5 0 0 0 9.4-9.1 50.6 50.6 0 0 0 6.5-10.6 51.7 51.7 0 0 0 3.5-11.1 51.1 51.1 0 0 0-.1-20.2zm-.8-1.5a52.2 52.2 0 0 1 .2 13.1 50.3 50.3 0 0 1-2.9 12 51.5 51.5 0 0 1-5.3 10.3l-.3.4a45.4 45.4 0 0 0 2.8-5.1c.5-1 .8-2 1.2-3s.7-2 1-3a46.3 46.3 0 0 0 1.2-6.1c.1-1 .3-2 .3-3.1s.1-1 .1-1.5v-1.5c0-1 0-2-.1-3s-.1-2-.3-3a46.5 46.5 0 0 0-2.7-11.1 47.5 47.5 0 0 0-4.9-9.5 47 47 0 0 0-10.2-10.9 46.8 46.8 0 0 0-53.8-7.1l4.1-2.1a51.6 51.6 0 0 1 11-3.6 50.9 50.9 0 0 1 20.1.2 50 50 0 0 1 14.6 5.5 48.2 48.2 0 0 1 8.3 5.7l2 1.8.7.6.6.7 1.8 2a48.1 48.1 0 0 1 5.8 8.2 50.6 50.6 0 0 1 4.1 9.7c.3 1.1.5 2.3.6 3.4zM2.3 65.2A50.7 50.7 0 0 1 3 42.3l-.3 1.4A47 47 0 0 0 5 69.8c.4 1 .8 2 1.3 3s.9 1.9 1.5 2.8a46.3 46.3 0 0 0 3.4 5.3l1.9 2.4 1 1.2 1 1.1 2.2 2.1 2.3 1.9 2.5 1.8a45.4 45.4 0 0 0 4.1 3 47.3 47.3 0 0 0 6.9 3.7A49.3 49.3 0 0 1 23 93 51 51 0 0 1 8.7 78.8a51.6 51.6 0 0 1-5.3-10.3q-.5-1.4-1-2.9zm75.2 28.2a45.9 45.9 0 0 1-12 5.6 47.2 47.2 0 0 1-6.6 1.4 50.5 50.5 0 0 1-6.7.5A45.7 45.7 0 0 1 35 97.5l4.5 1.1a47.1 47.1 0 0 0 18.6-.2 47.4 47.4 0 0 0 13.4-5.1A44.2 44.2 0 0 0 79 88l1.8-1.6.6-.6.6-.6 1.7-1.8a44.3 44.3 0 0 0 5.4-7.5 47.8 47.8 0 0 0 5.2-13.4 47.2 47.2 0 0 0 .3-18.7 46 46 0 0 0-9.1-20.1c-.9-1.1-1.8-2.2-2.8-3.3a46.2 46.2 0 0 1 7.9 9.1 47.1 47.1 0 0 1 4.7 9.5 45.9 45.9 0 0 1 2.6 11c.1 1 .2 1.9.2 2.9s.1 2 0 3v1.5c0 .5-.1 1-.1 1.5s-.2 2-.3 3a45.5 45.5 0 0 1-1.3 6c-.3 1-.6 2-1 3s-.7 2-1.2 2.9a46 46 0 0 1-16.7 19.6zm-9.3-81.6l2.5 1.3a44.9 44.9 0 0 1 5.1 3.3l2.3 1.9 1.1 1 1.1 1 2.1 2.1 1.9 2.2a45.5 45.5 0 0 1 5.9 9.5 48.1 48.1 0 0 1 3.3 10 46.3 46.3 0 0 1 .1 18.3 45.4 45.4 0 0 1-10.1 20.9l-1.6 1.8-.6.6-.6.6-1.8 1.6a44.1 44.1 0 0 1-7.5 5.3 44.6 44.6 0 0 1-13.4 5 46.4 46.4 0 0 1-18.4 0 47 47 0 0 1-9.4-3l-3.2-2a46.2 46.2 0 0 1-16.5-19.5c-.5-.9-.8-1.9-1.2-2.9s-.7-2-.9-3a45 45 0 0 1-1.3-6c-.1-1-.3-2-.3-3s-.1-1-.1-1.5v-4.4c0-1 .1-1.9.2-2.9a45.6 45.6 0 0 1 2.5-10.9 48.1 48.1 0 0 1 4.7-9.4 46.3 46.3 0 0 1 12.9-13 45.4 45.4 0 0 1 22-7.6h6.5a44 44 0 0 1 9.1 1.6zm-3.6-1.3a44.2 44.2 0 0 0-9.1-1.6h-6.6a44.2 44.2 0 0 0-9.1 1.5 47.9 47.9 0 0 0-13.1 5.8 47.2 47.2 0 0 0-13.4 13 46.6 46.6 0 0 0 3.2 56.7l-.8-.8-1-1.1-1-1.1-1.9-2.4a45.4 45.4 0 0 1-3.3-5.2c-.5-.9-1-1.8-1.4-2.8s-.9-1.9-1.2-2.9a45.9 45.9 0 0 1 2.3-38.2 47.5 47.5 0 0 1 3.6-5.7 50.6 50.6 0 0 1 4.4-5.1A45.6 45.6 0 0 1 39.6 8.3 46.2 46.2 0 0 1 65 10.4l1.5.6zM.5 56.5a51.5 51.5 0 0 1 .2-13.1 50 50 0 0 1 1.4-6.6c.3-1.1.7-2.2 1.1-3.3l.6-1.6.7-1.6a50.4 50.4 0 0 1 92.2 0l.7 1.6.6 1.6c.4 1.1.8 2.2 1 3.3s.4 1.5.6 2.3a50.7 50.7 0 0 0-3.9-8.8 48.3 48.3 0 0 0-5.8-8.2l-1.8-2-.6-.7-.7-.6-2-1.8a48.3 48.3 0 0 0-8.2-5.8 50.1 50.1 0 0 0-14.5-5.6 51.2 51.2 0 0 0-20.2-.1A51.8 51.8 0 0 0 30.8 9 50.5 50.5 0 0 0 7.3 30.7c-.6 1-1.1 2-1.6 3.1L5 35.3l-.7 1.6a51 51 0 0 0-2.9 25 54 54 0 0 1-.9-5.4zm100.8 8.6a51.5 51.5 0 0 1-3.6 11 50.4 50.4 0 0 1-6.5 10.6 51.5 51.5 0 0 1-9.4 9.1 50 50 0 0 1-5.7 3.7l-3 1.5-1.6.7-1.6.7A50.5 50.5 0 0 1 2.7 67.2l.5 1.4a51.8 51.8 0 0 0 5.4 10.3 51.1 51.1 0 0 0 14.3 14.2 49.6 49.6 0 0 0 11.2 5.5l4.4 1.6a48.7 48.7 0 0 0 6.7 1.5 51.5 51.5 0 0 0 6.9.5 46.8 46.8 0 0 0 38.2-19.9c.9-1.1 1.7-2.2 2.5-3.4a51.8 51.8 0 0 0 5.3-10.3 50.6 50.6 0 0 0 2.9-24.7l.2 1a51 51 0 0 1 .1 20.2z"/></g><g id="SvgjsG5809" featureKey="symbolFeature-0" transform="matrix(0.6140741295010098,0,0,0.6140741295010098,11.92617415481347,13.605720616028451)" fill="#fff"><g xmlns="http://www.w3.org/2000/svg"><path d="M57.057,82.927c0.016-0.011,0.032-0.019,0.047-0.028c-0.003-0.002-0.005-0.004-0.009-0.004   C57.082,82.906,57.068,82.914,57.057,82.927z"/><path d="M94.999,24.507c-0.004-0.147-0.071-0.269-0.167-0.374c-0.103-0.115-0.239-0.209-0.357-0.295   c-0.286-0.212-0.564-0.435-0.852-0.647c-0.529-0.391-1.146-0.72-1.746-0.989c-0.599-0.269-1.221-0.495-1.854-0.673   c-0.649-0.183-1.306-0.332-1.969-0.457c-0.696-0.13-1.395-0.237-2.096-0.338c-2.764-0.396-5.144-1.35-7.663-2.357l-0.668-0.266   c-2.418-0.962-6.039-1.834-9.561-0.509c-2.921,1.098-4.496,3.609-5.859,6.086c-0.563,1.027-1.139,2.047-1.725,3.062   c-0.575,0.999-1.163,1.992-1.758,2.979c-0.165,0.274-0.332,0.547-0.498,0.82c-0.08,0.131-0.174,0.261-0.243,0.397   c-0.052,0.101-0.125,0.267-0.058,0.373c0.1,0.156,0.286-0.013,0.415-0.042c0.188-0.041,0.365-0.1,0.548-0.16   c0.434-0.145,0.87-0.282,1.309-0.413c0.818-0.245,1.645-0.468,2.473-0.676c0.358-0.09,0.717-0.179,1.077-0.262   c0.134-0.031,0.244-0.103,0.384-0.12c0.129-0.015,0.259-0.004,0.387-0.011c0.185-0.01,0.377-0.051,0.56-0.001   c0.237,0.063,0.279,0.351,0.015,0.405c-0.123,0.025-0.248,0.016-0.37,0.055c-0.157,0.05-0.264,0.17-0.408,0.234   c-0.085,0.037-0.194,0.042-0.283,0.054c-0.191,0.025-0.384,0.057-0.576,0.075c-0.198,0.019-0.39,0.018-0.586,0.059   c-0.138,0.028-0.271,0.061-0.404,0.101c-0.325,0.097-0.646,0.194-0.966,0.309c-0.171,0.061-0.345,0.108-0.515,0.167   c-0.169,0.057-0.327,0.136-0.494,0.191c-0.386,0.125-0.772,0.262-1.162,0.374c-0.16,0.046-0.328,0.099-0.479,0.169   c-0.088,0.039-0.146,0.102-0.219,0.158c-0.104,0.078-0.236,0.11-0.355,0.153c-0.282,0.102-0.562,0.206-0.842,0.314   c-0.475,0.184-0.944,0.379-1.411,0.587c-0.282,0.162-0.567,0.312-0.847,0.489c-0.078,0.05-0.155,0.101-0.235,0.151   c-0.667,0.43-1.317,0.886-1.951,1.365c-0.622,0.47-1.23,0.956-1.827,1.458c-0.584,0.49-1.149,1.001-1.71,1.517   c-0.542,0.497-1.078,1.004-1.591,1.53c-0.247,0.252-0.489,0.53-0.756,0.76c-0.101,0.087-0.221,0.148-0.321,0.237   c-0.144,0.127-0.256,0.286-0.389,0.423c-0.062,0.063-0.14,0.109-0.201,0.171c-0.095,0.094-0.172,0.199-0.274,0.287   c-0.116,0.101-0.256,0.177-0.368,0.283c-0.119,0.113-0.221,0.242-0.346,0.351c-0.12,0.104-0.247,0.199-0.359,0.312   c-0.276,0.276-0.567,0.53-0.881,0.765c-0.243,0.183-0.431,0.4-0.634,0.626c-0.146,0.163-0.32,0.306-0.441,0.49   c-0.062,0.093-0.229,0.339-0.127,0.457c0.028,0.033,0.09,0.033,0.127,0.057c0.136,0.088,0.24,0.161,0.402,0.207   c0.218,0.061,0.447,0.076,0.673,0.063c0.171-0.011,0.342-0.007,0.515-0.004c0.106,0.002,0.211,0.004,0.32,0.003   c0.449-0.011,0.911-0.087,1.415-0.231c0.788-0.225,1.65-0.569,2.428-0.97c0.147-0.075,0.32-0.114,0.479-0.173   c0.186-0.069,0.352-0.158,0.511-0.278c0.085-0.064,0.294-0.181,0.407-0.108c0.317,0.205-0.744,0.765-0.867,0.84   c-0.284,0.173-0.756,0.3-0.865,0.664c-0.049,0.164-0.009,0.23,0.165,0.224c0.243-0.011,0.457-0.124,0.699-0.099   c0.281,0.029,0.599-0.042,0.877-0.086c0.166-0.025,0.33-0.055,0.493-0.091c0.672-0.145,1.31-0.413,1.836-0.862   c0.143-0.123,0.269-0.219,0.438-0.304c0.156-0.077,0.304-0.165,0.43-0.286c0.145-0.139,0.313-0.316,0.521-0.355   c0.176-0.033,0.144,0.193,0.112,0.31c-0.069,0.254-0.29,0.451-0.481,0.622c-0.188,0.167-0.439,0.303-0.52,0.561   c-0.093,0.302,0.313,0.318,0.513,0.312c0.529-0.016,1-0.222,1.48-0.433c0.377-0.165,0.73-0.37,1.068-0.606   c0.196-0.137,0.365-0.319,0.542-0.511c0.097-0.104,0.194-0.209,0.295-0.309c0.089-0.086,0.155-0.102,0.259-0.155   c0.215-0.112,0.373-0.342,0.515-0.531c0.12-0.161,0.226-0.37,0.411-0.47c0.041-0.022,0.133-0.056,0.18-0.04   c0.092,0.031,0.071,0.15,0.056,0.228c-0.03,0.148-0.122,0.268-0.193,0.397c-0.079,0.143-0.139,0.295-0.23,0.431   c-0.148,0.216-0.328,0.408-0.492,0.61c-0.099,0.121-0.22,0.238-0.251,0.397c-0.022,0.104,0.068,0.149,0.17,0.155   c0.134,0.006,0.251,0.01,0.374-0.046c0.103-0.046,0.194-0.077,0.306-0.089c0.283-0.029,0.547-0.14,0.806-0.253   c0.152-0.067,0.304-0.14,0.453-0.215c0.395-0.201,0.733-0.412,1.037-0.642c0.369-0.279,0.734-0.576,0.95-0.995   c0.062-0.123,0.164-0.214,0.249-0.321c0.098-0.123,0.165-0.262,0.246-0.396c0.115-0.187,0.234-0.382,0.414-0.512   c0.197-0.143,0.153,0.26,0.122,0.361c-0.094,0.298-0.259,0.563-0.399,0.84c-0.115,0.226-0.27,0.424-0.367,0.66   c-0.051,0.125-0.132,0.289-0.141,0.423c-0.006,0.087,0.036,0.2,0.134,0.205c0.105,0.005,0.218-0.006,0.314-0.044   c0.111-0.043,0.196-0.131,0.304-0.178c0.163-0.07,0.338-0.096,0.499-0.181c0.437-0.23,0.829-0.561,1.177-0.907   c0.219-0.218,0.421-0.451,0.609-0.695c0.284-0.373,0.564-0.693,0.843-1.011c0.322-0.368,0.628-0.716,0.936-1.141   c0.207-0.283,0.395-0.579,0.572-0.88c0.106-0.183,0.206-0.369,0.301-0.559c0.076-0.152,0.115-0.343,0.217-0.479   c0.088-0.117,0.227-0.223,0.242-0.001c0.016,0.218-0.082,0.432-0.145,0.635c-0.098,0.318-0.161,0.643-0.286,0.953   c-0.137,0.341-0.3,0.696-0.52,0.994c-0.157,0.212-0.356,0.39-0.522,0.596c-0.146,0.184-0.282,0.37-0.398,0.575   c-0.134,0.237-0.329,0.408-0.531,0.583c-0.15,0.131-0.227,0.274-0.326,0.441c-0.138,0.233-0.348,0.428-0.542,0.614   c-0.208,0.201-0.429,0.39-0.661,0.562c-0.237,0.177-0.49,0.337-0.757,0.468c-0.569,0.277-1.197,0.521-1.969,0.521   c-0.223,0-0.459-0.021-0.707-0.066c-0.021-0.004-0.038-0.016-0.056-0.022c-0.161,0.096-0.321,0.19-0.494,0.279   c-0.406,0.203-1.006,0.483-1.558,0.579c-0.128,0.022-0.477,0.075-0.851,0.075c-0.324,0-0.656-0.051-0.894-0.186   c-0.389,0.255-0.785,0.476-1.186,0.638c-0.498,0.202-1.057,0.346-1.531,0.397c-0.138,0.016-0.279,0.022-0.419,0.022   c-0.15,0-0.3-0.007-0.446-0.013c-0.123-0.005-0.877-0.124-0.798,0.173c0.03,0.12,0.19,0.205,0.288,0.259   c0.164,0.091,0.338,0.163,0.508,0.239c0.365,0.166,0.723,0.353,1.111,0.457c0.378,0.102,0.779,0.139,1.169,0.141   c0.421,0.002,0.84-0.084,1.22-0.267c0.191-0.091,0.426-0.001,0.514,0.188c0.052,0.112,0.01,0.202-0.021,0.312   c-0.037,0.134,0.035,0.178,0.161,0.203c0.467,0.089,0.917-0.004,1.352-0.184c0.232-0.096,0.547-0.249,0.713,0.035   c0.078,0.133,0.074,0.228-0.034,0.325c-0.068,0.062-0.154,0.218-0.021,0.256c0.103,0.03,0.256-0.012,0.359-0.032   c0.275-0.051,0.527-0.174,0.788-0.271c0.177-0.065,0.369-0.079,0.54-0.155c0.138-0.062,0.269-0.145,0.391-0.233   c0.078-0.056,0.15-0.135,0.225-0.212c0.15-0.16,0.309-0.324,0.518-0.408c0.195-0.076,0.418,0.017,0.497,0.212   c0.077,0.196-0.019,0.417-0.213,0.496c-0.092,0.037-0.514,0.245-0.354,0.385c0.059,0.052,0.224,0.028,0.295,0.023   c0.113-0.007,0.225-0.033,0.332-0.066c0.245-0.077,0.456-0.225,0.689-0.328c0.197-0.087,0.406-0.12,0.603-0.221   c0.102-0.053,0.185-0.101,0.275-0.173c0.249-0.2,0.425-0.474,0.655-0.692c0.129-0.123,0.227-0.264,0.363-0.377   c0.063-0.053,0.107-0.092,0.181-0.125c0.052-0.023,0.115-0.05,0.16-0.087c0.076-0.063,0.141-0.145,0.218-0.209   c0.109-0.092,0.195-0.21,0.306-0.299c0.091-0.072,0.192-0.1,0.279-0.181c0.192-0.178,0.371-0.37,0.524-0.583   c0.045-0.063,0.088-0.127,0.129-0.193c0.027-0.045,0.113-0.146,0.113-0.198l0.106-0.204c0.201-0.378,0.402-0.757,0.563-1.155   c0.157-0.393,0.269-0.804,0.399-1.207c0.082-0.253,0.161-0.508,0.221-0.768c0.015-0.069,0.054-0.257,0.161-0.226   c0.155,0.045,0.08,0.475,0.068,0.573c-0.039,0.319-0.108,0.635-0.166,0.952c-0.054,0.297-0.112,0.593-0.211,0.88   c-0.196,0.575-0.439,1.155-0.699,1.704c-0.068,0.147-0.131,0.297-0.213,0.438c-0.081,0.141-0.19,0.239-0.305,0.352   c-0.156,0.154-0.304,0.314-0.472,0.456c-0.151,0.126-0.303,0.25-0.46,0.368l-0.358,0.285c-0.179,0.145-0.335,0.289-0.487,0.428   c-0.388,0.354-0.755,0.69-1.334,0.947l-0.173,0.08c-0.407,0.191-0.981,0.46-1.887,0.46c-0.234,0-0.49-0.018-0.771-0.06   c-0.032-0.004-0.058-0.02-0.086-0.031c-0.111,0.044-0.225,0.084-0.333,0.11c-0.454,0.106-0.979,0.156-1.363,0.193   c-0.211,0.022-0.443,0.046-0.67,0.046c-0.277,0-0.548-0.036-0.764-0.157c-0.088-0.048-0.146-0.127-0.175-0.215   c-0.18,0.01-0.359,0.013-0.537,0.013L56.5,47.944c-0.063,0-0.125,0.001-0.188,0.001c-0.195,0-0.393-0.004-0.584-0.023l-0.123-0.011   c-0.278-0.021-0.66-0.051-0.935-0.326c-0.026-0.025-0.022-0.062-0.038-0.091c-0.35-0.015-0.706-0.066-1.045-0.15   c-0.607-0.151-1.201-0.406-1.73-0.738c-0.261-0.163-0.509-0.346-0.738-0.549c-0.103-0.092-0.202-0.188-0.297-0.29   c-0.079-0.085-0.153-0.217-0.247-0.285c-0.115-0.085-0.224,0.042-0.335,0.072c-0.276,0.074-0.592,0.086-0.876,0.11   c-0.295,0.025-0.592,0.039-0.889,0.039c-0.453,0-0.887-0.03-1.274-0.09c-0.098-0.015-0.189-0.062-0.29-0.061   c-0.062,0.001-0.11,0.02-0.169-0.015c-0.043-0.027-0.067-0.089-0.121-0.1c-0.061-0.013-0.11,0.039-0.158,0.067   c-0.056,0.033-0.111,0.053-0.173,0.071c-0.168,0.049-0.341,0.085-0.512,0.118c-0.314,0.06-0.64,0.105-0.961,0.105   c-0.118,0-0.236-0.001-0.354-0.003c-0.151-0.003-0.302-0.007-0.45,0.002c-0.069,0.004-0.136,0.006-0.2,0.006   c-0.182,0-0.361-0.017-0.539-0.052c-0.261-0.051-0.474-0.165-0.716-0.265c-0.096-0.04-0.228-0.097-0.332-0.084   c-0.125,0.014-0.2,0.145-0.284,0.225c-0.137,0.131-0.273,0.263-0.412,0.393c-0.494,0.463-0.999,0.916-1.518,1.35   c-0.158,0.132-0.316,0.263-0.478,0.391c-0.257,0.206-0.52,0.456-0.816,0.602c-0.1,0.049-0.176,0.099-0.246,0.188   c-0.098,0.126-0.196,0.165-0.341,0.228c-0.123,0.054-0.25,0.141-0.366,0.211c-0.146,0.088-0.297,0.153-0.457,0.217   c-0.138,0.055-0.293,0.103-0.413,0.193c-0.117,0.088-0.227,0.186-0.346,0.274c-0.239,0.176-0.509,0.296-0.782,0.41   c-0.247,0.103-0.479,0.217-0.719,0.338c-0.27,0.137-0.53,0.298-0.811,0.416c-0.291,0.121-0.602,0.193-0.873,0.359   c-0.31,0.189-0.673,0.289-0.962,0.507c-0.274,0.205-0.555,0.397-0.848,0.574c-0.286,0.173-0.603,0.283-0.884,0.462   c-0.189,0.121-0.383,0.236-0.579,0.346c-0.403,0.226-0.783,0.475-1.139,0.771c-0.125,0.104-0.222,0.205-0.293,0.351   c-0.091,0.186-0.208,0.354-0.295,0.542c-0.098,0.214-0.209,0.418-0.25,0.652c-0.009,0.054,0.007,0.109,0.001,0.163   c-0.006,0.052-0.022,0.094-0.024,0.146c-0.005,0.126,0.018,0.261,0.102,0.36c0.607,0.708,1.772,0.569,2.711,0.459   c0.184-0.021,0.358-0.043,0.519-0.056c1.629-0.138,2.821-0.296,4.726-0.629c0.85-0.148,1.619-0.339,2.363-0.524   c0.818-0.203,1.663-0.413,2.616-0.567c1.608-0.259,3.343-0.644,5.306-1.176c0.375-0.102,0.739-0.23,1.103-0.36   c0.211-0.075,0.432-0.18,0.652-0.219c0.102-0.019,0.203-0.007,0.304-0.01c0.142-0.006,0.271-0.068,0.399-0.115   c0.312-0.111,0.633-0.167,0.931-0.318c0.265-0.135,0.582-0.344,0.893-0.325c0.024,0.134-0.085,0.226-0.172,0.307   c-0.065,0.061-0.127,0.133-0.199,0.183c-0.064,0.045-0.139,0.07-0.206,0.11c-0.25,0.146-0.529,0.231-0.8,0.335   c-0.267,0.102-0.552,0.141-0.816,0.243C48.11,53.565,47.7,53.75,47.3,53.938c-0.213,0.099-0.428,0.186-0.635,0.297   c-0.219,0.118-0.441,0.192-0.669,0.284c-0.376,0.152-0.767,0.216-1.156,0.316c-0.151,0.039-0.31,0.101-0.463,0.122   c-0.285,0.04-0.563,0.009-0.848,0.076c-0.274,0.064-0.525,0.182-0.791,0.264c-0.278,0.085-0.509,0.225-0.807,0.248   c-0.18,0.014-0.352-0.03-0.53-0.036c-0.279-0.01-0.563,0.065-0.834,0.119c-0.297,0.059-0.592,0.123-0.887,0.192   c-0.328,0.076-0.654,0.158-0.982,0.239c-0.757,0.188-1.54,0.383-2.417,0.536c-1.929,0.337-3.139,0.497-4.792,0.636   c-0.152,0.013-0.318,0.033-0.493,0.054c-0.38,0.045-0.81,0.097-1.245,0.097c-0.779,0-1.576-0.164-2.135-0.816   c-0.23-0.269-0.45-0.794-0.223-1.12c0.068-0.097,0.159-0.269,0.118-0.393c-0.049-0.152-0.375,0.03-0.482,0.052   c-0.417,0.081-0.782,0.263-1.129,0.512c-0.226,0.162-0.451,0.332-0.667,0.508c-0.188,0.154-0.316,0.347-0.485,0.516   c-0.181,0.183-0.321,0.313-0.373,0.581c-0.026,0.138-0.03,0.279-0.038,0.42c-0.006,0.121-0.031,0.244-0.029,0.364   c0.003,0.237,0.024,0.464,0.135,0.679c0.282,0.545,1.003,0.925,1.762,0.925c0.513-0.002,1.028-0.085,1.533-0.168   c0.703-0.115,1.402-0.257,2.099-0.407c0.737-0.157,1.471-0.33,2.201-0.514c0.614-0.154,1.232-0.304,1.838-0.49   c0.252-0.078,0.506-0.14,0.761-0.208c0.537-0.145,1.058-0.347,1.6-0.479c0.129-0.031,0.26-0.062,0.391-0.089   c0.169-0.036,0.356-0.103,0.531-0.098c0.173,0.005,0.193,0.123,0.052,0.214c-0.239,0.154-0.552,0.196-0.81,0.317   c-0.342,0.16-0.664,0.359-1.016,0.498c-0.374,0.146-0.757,0.259-1.13,0.405c-0.422,0.167-0.837,0.364-1.278,0.475   c-0.227,0.058-0.456,0.094-0.687,0.137c-0.138,0.026-0.288,0.046-0.413,0.113c-0.179,0.098-0.373,0.146-0.571,0.183   c-0.189,0.035-0.397,0.027-0.58,0.084c-0.179,0.055-0.344,0.112-0.529,0.151c-0.219,0.047-0.438,0.095-0.656,0.142   c-0.788,0.167-1.582,0.318-2.38,0.42c-0.318,0.04-0.639,0.075-0.96,0.075c-0.327,0-0.656-0.056-0.967-0.155   c-0.317-0.102-0.623-0.214-0.855-0.46c-0.149-0.158-0.301-0.32-0.427-0.497c-0.262-0.37-0.205-0.76-0.254-1.18   c-0.005-0.043-0.021-0.083-0.021-0.126c-0.054-0.006-0.083-0.039-0.143-0.039c-0.055,0.001-0.098,0.01-0.148,0.034   c-0.098,0.048-0.218,0.101-0.304,0.165c-0.07,0.052-0.118,0.125-0.188,0.179c-0.216,0.17-0.437,0.333-0.656,0.498   c-0.689,0.521-1.38,1.049-2.09,1.568l-0.121,0.088c-0.013,0.018-0.008,0.042-0.024,0.059c-0.438,0.437-0.564,1.456-0.338,1.895   c0.817,0.726,2.051,0.383,2.721,0.198l0.13-0.035c0.488-0.133,0.906-0.255,1.293-0.365c0.389-0.113,0.747-0.219,1.114-0.315   c0.383-0.1,1.034-0.234,1.804-0.395c0.734-0.152,1.468-0.305,2.199-0.471c0.369-0.083,0.736-0.17,1.103-0.263   c0.173-0.044,0.346-0.089,0.518-0.136c0.062-0.017,0.156-0.046,0.229-0.045l-0.001-0.007c0.077-0.019,0.153-0.039,0.218-0.07   c0.08-0.038,0.148-0.105,0.228-0.147c0.084-0.043,0.174-0.078,0.263-0.108c0.177-0.062,0.359-0.105,0.538-0.163   c0.417-0.133,0.836-0.321,1.265-0.411c0.06-0.013,0.227-0.057,0.278-0.001c0.059,0.062-0.065,0.132-0.108,0.16   c-0.309,0.208-0.641,0.364-0.94,0.589c-0.335,0.251-0.69,0.411-1.081,0.555c-0.399,0.145-0.782,0.332-1.182,0.472   c-0.368,0.129-0.751,0.234-1.136,0.3c-0.542,0.091-1.106,0.033-1.607,0.283c-0.501,0.251-1.094,0.305-1.638,0.422   c-0.252,0.054-0.504,0.108-0.754,0.175c-0.36,0.095-0.712,0.197-1.095,0.309c-0.391,0.114-0.813,0.236-1.307,0.369l-0.125,0.034   c-0.386,0.107-0.984,0.273-1.626,0.273c-0.199,0-0.398-0.016-0.594-0.053c-0.368-0.067-0.718-0.212-1.021-0.432   c-0.113-0.083-0.25-0.178-0.322-0.303c-0.032-0.055-0.041-0.114-0.082-0.165c-0.05-0.062-0.117-0.102-0.138-0.185   c-0.019-0.077-0.008-0.15-0.013-0.228c-0.004-0.078-0.015-0.153-0.015-0.232c0-0.094,0.008-0.183,0.016-0.276   c0.014-0.146,0.095-0.264,0.07-0.42c-0.106-0.035-0.229,0.093-0.282,0.17c-0.069,0.102-0.151,0.17-0.247,0.25   c-0.784,0.901-1.631,2.354-1.556,2.888c0.035,0.252,0.151,0.432,0.363,0.566c0.468,0.298,1.831,0.623,5.687-0.558   c1.979-0.605,3.934-1.154,5.811-1.629c1.597-0.403,3.207-0.875,4.764-1.33c1.643-0.48,3.34-0.978,5.031-1.397   c0.554-0.139,1.117-0.253,1.681-0.369c0.941-0.192,1.914-0.392,2.819-0.701c0.303-0.104,0.596-0.224,0.888-0.343   c0.588-0.239,1.194-0.488,1.866-0.602c0.794-0.134,1.593-0.173,2.366-0.211c0.908-0.044,1.848-0.09,2.754-0.293   c1.04-0.231,2.202-0.594,3.359-1.048l1.133-0.442c3.557-1.378,6.916-2.681,9.39-5.759c1.482-1.847,2.506-3.501,3.223-5.208   c0.147-0.354,0.32-0.729,0.5-1.118c0.322-0.702,0.647-1.405,0.904-2.135c0.238-0.681,0.433-1.403,0.429-2.129   c-0.002-0.185-0.022-0.367-0.039-0.55c-0.013-0.132-0.019-0.365,0.103-0.46c0.025-0.021,0.219-0.082,0.23-0.075   c0.027,0.018,0.063,0.159,0.077,0.192c0.025,0.058,0.043,0.105,0.054,0.167c0.062,0.36,0.081,0.708,0.062,1.073   c-0.011,0.194-0.008,0.388-0.022,0.583c-0.015,0.218-0.061,0.413-0.115,0.624c-0.09,0.33-0.183,0.661-0.344,0.965   c-0.129,0.245-0.188,0.502-0.292,0.756c-0.052,0.126-0.127,0.239-0.167,0.37c-0.031,0.107-0.044,0.217-0.079,0.323   c-0.087,0.266-0.202,0.501-0.322,0.754c-0.088,0.183-0.077,0.353-0.12,0.544c-0.058,0.254-0.192,0.491-0.296,0.728   c-0.1,0.23-0.201,0.456-0.315,0.68c-0.236,0.466-0.483,0.923-0.749,1.375c-0.279,0.477-0.584,0.941-0.901,1.393   c-0.348,0.493-0.709,0.974-1.083,1.447c-0.048,0.061-0.095,0.121-0.144,0.181c-2.6,3.238-6.052,4.577-9.706,5.993l-1.13,0.44   c-1.195,0.469-2.395,0.843-3.472,1.083c-0.971,0.217-1.943,0.265-2.884,0.311c-0.751,0.036-1.526,0.074-2.276,0.2   c-0.589,0.101-1.13,0.321-1.704,0.557c-0.307,0.125-0.613,0.25-0.93,0.357c-0.952,0.326-1.948,0.53-2.913,0.728   c-0.554,0.113-1.105,0.227-1.649,0.361c-1.678,0.417-3.367,0.911-5.001,1.39c-1.564,0.459-3.182,0.931-4.792,1.338   c-1.864,0.471-3.807,1.017-5.773,1.618c-1.889,0.579-3.408,0.869-4.545,0.869c-0.767,0-1.36-0.133-1.775-0.397   c-0.141-0.089-0.268-0.2-0.373-0.331c-0.042-0.052-0.088-0.105-0.128-0.143c-0.04-0.036-0.064-0.094-0.107-0.126   c-0.041-0.029-0.087-0.046-0.138-0.053c-0.168-0.021-0.302,0.037-0.438,0.127c-0.608,0.402-1.228,0.79-1.851,1.169   c-1.104,0.667-2.243,1.357-3.261,2.138l-0.232,0.179c-1.014,0.776-2.061,1.576-2.968,2.483c-0.087,0.084-0.17,0.176-0.252,0.266   c-0.195,0.215-0.388,0.431-0.573,0.655c-0.233,0.284-0.455,0.571-0.673,0.866c-0.205,0.277-0.406,0.588-0.548,0.902   c-0.125,0.276-0.245,0.604-0.164,0.911c0.061,0.233,0.327,0.357,0.548,0.381c0.206,0.023,0.427,0.004,0.635,0.004   c0.13,0,0.264,0.007,0.392-0.019c0.134-0.026,0.271-0.072,0.409-0.09c0.081-0.013,0.18-0.006,0.26,0   c0.043,0.004,0.073,0.012,0.115,0.02c0.132,0.027,0.256,0.01,0.381-0.037c0.122-0.045,0.241-0.038,0.371-0.053   c0.333-0.035,0.665-0.077,0.996-0.121c0.183-0.023,0.366-0.047,0.549-0.071l0.192-0.056l0.03-0.002l0.668-0.103   c0.509-0.076,0.998-0.129,1.5-0.185c1.161-0.134,2.262-0.259,3.503-0.646c3.229-1.004,5.824-2.17,7.937-3.56   c0.823-0.539,1.63-1.117,2.439-1.694c1.643-1.172,3.342-2.383,5.154-3.268c0.604-0.296,1.201-0.535,1.795-0.741   c2.327-0.972,4.814-1.727,6.638-1.944c1.635-0.199,3.153-0.361,4.772-0.357c0.284,0,0.614,0.02,0.965,0.042   c0.594,0.036,1.191,0.075,1.787,0.03c0.272-0.021,0.54-0.061,0.802-0.138c0.242-0.071,0.413-0.199,0.622-0.332   c0.309-0.194,0.65-0.391,0.989-0.525c0.172-0.069,0.355-0.154,0.534-0.2c0.145-0.037,0.168,0.078,0.14,0.202   c-0.062,0.273-0.35,0.46-0.568,0.605c-0.24,0.16-0.496,0.301-0.722,0.484c-0.132,0.106-0.222,0.26-0.36,0.356   c-0.326,0.231-0.746,0.111-1.104,0.244c-0.192,0.072-0.399,0.074-0.604,0.08c-0.248,0.008-0.495,0.005-0.742-0.004   c-0.273-0.008-0.548-0.026-0.821-0.043c-0.363-0.022-0.691-0.041-0.991-0.041c-0.337,0-0.677,0.004-1.014,0.021   c-0.159,0.007-0.319,0.034-0.477,0.014c-0.103-0.014-0.165-0.03-0.25,0.041c-0.086,0.07-0.127,0.188-0.016,0.263   c0.057,0.038,0.172,0.045,0.237,0.063c0.071,0.02,0.144,0.04,0.215,0.062c0.127,0.041,0.252,0.089,0.379,0.135   c0.351,0.126,0.711,0.221,1.07,0.319c0.677,0.188,1.354,0.379,2.032,0.56c0.583,0.154,1.168,0.3,1.757,0.429   c0.482,0.104,0.967,0.203,1.455,0.277c0.241,0.037,0.486,0.076,0.73,0.09c0.153,0.008,0.403-0.121,0.507-0.234   c0.112-0.123,0.141-0.33,0.189-0.482c0.064-0.195,0.147-0.384,0.211-0.58c0.083-0.256,0.141-0.527,0.265-0.768   c0.023-0.044,0.077-0.167,0.145-0.153c0.068,0.015,0.072,0.159,0.077,0.209c0.023,0.245,0.018,0.493,0.037,0.738   c0.06,0.784-0.295,1.441-0.562,2.155c-0.083,0.226-0.152,0.437-0.29,0.636c-0.164,0.236-0.091,0.576-0.052,0.84   c0.041,0.284,0.173,0.568,0.175,0.848c0.002,0.156,0.067,0.306,0.097,0.458c0.053,0.268,0.074,0.538,0.193,0.79   c0.05,0.105,0.121,0.198,0.175,0.303c0.047,0.091,0.09,0.172,0.153,0.249c0.106,0.133,0.208,0.258,0.264,0.421   c0.078,0.232,0.173,0.463,0.289,0.679c0.047,0.09,0.102,0.157,0.169,0.229c0.04,0.044,0.046,0.102,0.08,0.146   c0.087,0.119,0.206,0.22,0.302,0.335c0.113,0.139,0.23,0.274,0.35,0.409c0.237,0.265,0.484,0.521,0.738,0.772   c0.141,0.142,0.285,0.28,0.43,0.419c0.383,0.371,0.766,0.74,1.121,1.128c0.104,0.113,0.215,0.241,0.328,0.375   c-0.01-0.002-0.023-0.004-0.031-0.005c0.161,0.181,1.54,1.731,1.155,2.887c-0.246,0.735,0.179,0.411-0.302,0.675   c-0.27,0.149-0.463,0.318-0.688,0.509c-0.253,0.214-0.317,0.181-0.569,0.411c-0.405,0.371-0.608,0.583-0.838,1.079   c-0.111,0.247-0.116,0.529-0.014,0.757c0.118,0.262,0.283,0.514,0.478,0.725c0.093,0.1,0.49,0.27,0.921,0.187   c-0.295-0.328-0.438-0.671-0.427-1.03c0.021-0.543,0.304-0.799,1.005-1.232c0.507-0.314,1.151-0.421,1.724-0.221   c0.162,0.057,0.314,0.146,0.499,0.125c0.118-0.015,0.151-0.079,0.219-0.163c0.102-0.129,0.234-0.226,0.315-0.371   c0.062-0.109,0.09-0.218,0.195-0.298c0.112-0.082,0.258-0.103,0.393-0.111c0.247-0.014,0.516,0.004,0.759,0.054   c0.166,0.034,0.295,0.117,0.434,0.211c0.199,0.137,0.396,0.271,0.572,0.438c0.113,0.108,0.219,0.225,0.344,0.319   c0.134,0.102,0.285,0.152,0.429,0.234c0.133,0.077,0.268,0.156,0.406,0.221c0.062,0.028,0.163,0.058,0.284,0.092   c0.586,0.172,1.511,0.466,1.703,1.137c0.081,0.288-0.063,0.584-0.063,0.871c-0.002,0.243,0.109,0.407,0.319,0.173   c0.1-0.111,0.227-0.421,0.271-0.569c0.082-0.276,0.078-0.585,0.104-0.872c0.02-0.208-0.015-0.411-0.104-0.601   c-0.072-0.15-0.175-0.282-0.25-0.431c-0.052-0.101-0.089-0.211-0.155-0.305c-0.146-0.206-0.637-0.369-0.48-0.687   c0.104-0.209,0.364-0.104,0.54-0.073c0.177,0.03,0.367,0.135,0.531,0.206c0.151,0.065,0.262,0.123,0.432,0.139   c0.119,0.01,0.208,0.032,0.312,0.086c0.281,0.145,0.601,0.242,0.902,0.335c0.179,0.054,0.361,0.104,0.547,0.135   c0.066,0.011,0.172,0.011,0.297,0.013c0.611,0.006,1.58,0.04,1.946,0.633c0.156,0.255,0.098,0.578,0.174,0.855   c0.064,0.235,0.216,0.362,0.355,0.08c0.065-0.133,0.104-0.467,0.106-0.62c0.006-0.288-0.083-0.585-0.135-0.869   c-0.121-0.657-0.618-0.768-1.001-1.245c-0.131-0.164-0.07-0.166-0.266-0.243c-0.143-0.057-0.252-0.078-0.389-0.153   c-0.369-0.206-0.804-0.16-1.176-0.339c-0.156-0.076-0.26-0.115-0.438-0.119c-0.245-0.005-0.329-0.063-0.497-0.229   c-0.183-0.184-0.389-0.381-0.585-0.548c-0.1-0.083-0.274-0.143-0.396-0.185c-0.144-0.048-0.301-0.066-0.446-0.119   c-0.169-0.062-0.331-0.14-0.5-0.198c-0.218-0.078-0.463-0.183-0.661-0.296c-0.153-0.09-0.362-0.126-0.543-0.185   c-0.164-0.055-0.323-0.125-0.479-0.197c-0.28-0.131-0.562-0.239-0.848-0.351c-0.106-0.042-0.212-0.05-0.321-0.08   c-0.145-0.038-0.272-0.124-0.4-0.199c-0.152-0.089-0.333-0.112-0.495-0.169c-0.112-0.038-0.173-0.124-0.29-0.158   c-0.129-0.038-0.254-0.116-0.371-0.181c-0.131-0.071-0.224-0.197-0.351-0.279c-0.384-0.248-0.698-0.591-1.008-0.923   c-0.592-0.64-1.071-1.404-1.405-2.209C57.177,71.035,57,70.17,57.13,69.333c0.137-0.875,0.475-1.784,1.033-2.779   c0.139-0.245,0.274-0.492,0.407-0.74c0.234-0.44,0.458-0.885,0.665-1.339c0.104-0.226,0.229-0.459,0.302-0.696   c0.063-0.21,0.084-0.408,0.202-0.601c0.049-0.078,0.102-0.149,0.139-0.231c0.028-0.059,0.04-0.118,0.062-0.177   c0.063-0.16,0.089-0.278,0.079-0.451c-0.01-0.155-0.084-0.306-0.136-0.449c-0.049-0.13-0.133-0.325-0.283-0.361   c-0.04-0.009-0.074,0.005-0.111,0c-0.044-0.006-0.092-0.033-0.134-0.048c-0.059-0.021-0.118-0.041-0.178-0.063   c-0.537-0.186-1.092-0.379-1.592-0.71c-0.14-0.093-0.272-0.19-0.405-0.289c-0.167-0.123-0.331-0.246-0.51-0.354   c-0.047-0.027-0.102-0.056-0.159-0.085c-0.227-0.118-0.463-0.243-0.619-0.452c-0.062-0.083-0.131-0.2-0.174-0.295   c-0.045-0.1-0.047-0.228,0.06-0.288c0.099-0.057,0.166-0.01,0.263,0.03c0.162,0.067,0.346,0.132,0.478,0.247   c0.21,0.183,0.488,0.246,0.719,0.401c0.13,0.088,0.218,0.215,0.364,0.268c0.148,0.053,0.295,0.123,0.434,0.2   c0.255,0.142,0.505,0.276,0.778,0.385c0.203,0.08,0.41,0.149,0.614,0.223l0.415,0.146c0.636,0.235,1.35,0.439,2.031,0.418   c0.059-0.002,0.116-0.025,0.173-0.041c0.091-0.026,0.168-0.049,0.21-0.143c0.043-0.095,0.002-0.168-0.092-0.198   c-0.183-0.06-0.318-0.207-0.506-0.242c-0.223-0.042-0.44-0.148-0.636-0.262c-0.433-0.249-0.814-0.549-1.06-0.758   c-0.111-0.095-0.23-0.183-0.342-0.279c-0.087-0.077-0.212-0.212-0.097-0.321c0.115-0.11,0.397-0.094,0.534-0.036   c0.082,0.033,0.136,0.105,0.205,0.157c0.086,0.064,0.185,0.106,0.28,0.153c0.159,0.077,0.302,0.188,0.469,0.247   c0.187,0.065,0.377,0.098,0.552,0.196c0.12,0.068,0.223,0.159,0.35,0.217c0.254,0.114,0.53,0.097,0.786,0.189   c0.085,0.03,0.157,0.067,0.25,0.075c0.149,0.013,0.305,0,0.454-0.004c0.265-0.008,0.548,0.025,0.807-0.043   c0.253-0.067,0.507-0.104,0.748-0.209c0.264-0.115,0.499-0.279,0.678-0.506c0.045-0.056,0.158-0.132,0.174-0.202   c0.028-0.117-0.135-0.089-0.206-0.086c-0.113,0.003-0.213,0.028-0.327,0.007c-0.105-0.02-0.205-0.062-0.312-0.081   c-0.137-0.023-0.27,0.008-0.407,0.004c-0.391-0.011-0.815-0.133-1.179-0.275c-0.227-0.089-0.427-0.26-0.665-0.293   c-0.139-0.02-0.277-0.039-0.411-0.084c-0.097-0.032-0.287-0.091-0.315-0.207c-0.098-0.407,0.755-0.242,0.931-0.209   c0.263,0.048,0.531,0.063,0.793,0.12c0.165,0.036,0.327,0.083,0.496,0.115c0.458,0.086,0.926,0.11,1.392,0.12   c0.185,0.004,0.35,0.058,0.536,0.058c0.218,0,0.436-0.007,0.65-0.036c0.217-0.03,0.435-0.082,0.631-0.182   c0.026-0.013,0.052-0.01,0.078-0.016c0.097-0.071,0.191-0.149,0.294-0.212c0.077-0.047,0.162-0.069,0.146-0.176   c-0.004-0.032-0.018-0.104-0.048-0.123c-0.037-0.024-0.131-0.009-0.176-0.005c-0.53,0.041-1.089,0.004-1.605-0.122   c-0.232-0.057-0.485-0.117-0.69-0.244c-0.068-0.042-0.332-0.241-0.2-0.333c0.063-0.044,0.204,0,0.272,0.011   c0.124,0.02,0.248,0.034,0.373,0.047c0.227,0.023,0.449,0.065,0.675,0.066c0.189,0,0.374-0.013,0.562-0.017   c0.23-0.006,0.49-0.035,0.715-0.085c0.2-0.043,0.463-0.062,0.646-0.149c0.172-0.084,0.39-0.117,0.578-0.159   c0.158-0.035,0.305-0.111,0.449-0.187c0.153-0.08,0.311-0.136,0.457-0.229c0.08-0.05,0.125-0.102,0.187-0.171   c0.115-0.13,0.262-0.192,0.413-0.272c0.108-0.058,0.21-0.173,0.306-0.252c0.1-0.083,0.196-0.167,0.295-0.251   c0.217-0.188,0.434-0.375,0.646-0.567c0.422-0.383,0.834-0.776,1.233-1.182c0.393-0.402,0.773-0.816,1.136-1.246   c0.354-0.421,0.689-0.856,1.001-1.309c0.07-0.102,0.141-0.204,0.206-0.308c0.045-0.071,0.062-0.147,0.103-0.219   c0.113-0.202,0.319-0.348,0.437-0.554c0.057-0.098,0.096-0.208,0.137-0.313c0.112-0.285,0.225-0.583,0.311-0.876   c0.072-0.242,0.196-0.443,0.291-0.675c0.077-0.185,0.139-0.381,0.209-0.569c0.062-0.172,0.117-0.337,0.188-0.505   c0.079-0.185,0.117-0.393,0.107-0.594c-0.005-0.12,0.024-0.423-0.171-0.352c-0.086,0.031-0.147,0.106-0.216,0.162   c-0.099,0.078-0.222,0.149-0.349,0.163c-0.284,0.031,0.013-0.297,0.074-0.392c0.108-0.168,0.268-0.315,0.362-0.491   c0.028-0.054,0.064-0.117,0.116-0.149c0.043-0.026,0.092-0.033,0.136-0.066c0.088-0.068,0.162-0.156,0.235-0.241   c0.045-0.052,0.075-0.101,0.102-0.161c0.054-0.118,0.083-0.206,0.087-0.334c0.004-0.11,0.002-0.22,0.003-0.329   c0-0.102-0.041-0.172-0.06-0.268c-0.212-0.062-0.354,0.088-0.512,0.209c-0.17,0.132-0.319,0.288-0.516,0.386   c-0.117,0.058-0.657,0.258-0.684-0.005c-0.02-0.18,0.295-0.298,0.417-0.361c0.214-0.11,0.404-0.254,0.598-0.396   c0.116-0.086,0.231-0.176,0.339-0.273c0.186-0.169,0.351-0.356,0.478-0.573c0.123-0.209,0.187-0.389,0.164-0.633   c-0.012-0.138-0.039-0.321-0.181-0.387c-0.242-0.113-0.484,0.115-0.671,0.237c-0.129,0.083-0.395,0.221-0.544,0.108   c-0.133-0.102,0.032-0.246,0.117-0.312c0.302-0.237,0.641-0.398,0.917-0.668c0.142-0.136,0.292-0.245,0.368-0.435   c0.077-0.2,0.062-0.426,0.051-0.636c-0.047-0.936-0.117-1.863-0.26-2.79c-0.133-0.873-0.331-1.735-0.59-2.58   c-0.067-0.221-0.058-0.442-0.073-0.674c-0.012-0.177-0.081-0.313-0.125-0.479c-0.027-0.1-0.03-0.196-0.044-0.299   c-0.023-0.202-0.062-0.413-0.11-0.61c-0.036-0.146-0.075-0.324-0.04-0.472c0.113-0.003,0.232,0.013,0.298,0.111   c0.069,0.104,0.118,0.25,0.156,0.369c0.052,0.16,0.086,0.322,0.146,0.481c0.061,0.16,0.128,0.325,0.195,0.482   c0.049,0.113,0.131,0.208,0.177,0.326c0.033,0.086,0.084,0.178,0.112,0.265c0.031,0.102,0.021,0.221,0.044,0.327   c0.037,0.171,0.108,0.324,0.123,0.501c0.011,0.134,0.021,0.261,0.072,0.386c0.112,0.281,0.182,0.554,0.241,0.852   c0.041,0.214,0.081,0.43,0.117,0.645c0.032,0.193,0.073,0.396,0.216,0.538c0.169,0.169,0.401-0.063,0.467-0.229   c0.058-0.147,0.038-0.31,0.089-0.458c0.062-0.181,0.173-0.347,0.246-0.526c0.067-0.17,0.163-0.313,0.263-0.464   c0.064-0.096,0.089-0.207,0.127-0.313c0.057-0.156,0.129-0.305,0.202-0.453c0.053-0.106,0.13-0.178,0.191-0.276   c0.166-0.263,0.251-0.609,0.356-0.901c0.241-0.671,0.447-1.25,0.96-1.78c0.075-0.076,0.117-0.1,0.172-0.13   c0.209-0.121,0.33-0.247,0.455-0.647c0.077-0.253,0.046-0.52,0.018-0.757c-0.016-0.134-0.033-0.272-0.021-0.363   c0.058-0.453,0.294-0.882,0.544-1.339l0.196-0.363c0.09-0.176,0.165-0.347,0.238-0.52c0.129-0.296,0.248-0.577,0.447-0.821   c0.593-0.731,1.79-0.872,2.848-0.997c0.346-0.041,0.68-0.08,0.979-0.136c0.356-0.066,0.71-0.143,1.063-0.22   c0.911-0.201,1.771-0.389,2.678-0.397c1.467-0.015,2.412-0.279,3.688-0.678c0.12-0.038,0.213-0.081,0.315-0.153   C95.005,24.657,94.999,24.532,94.999,24.507z M39.34,48.881c0.009-0.062,0.033-0.114,0.065-0.163   c0.033-0.054,0.076-0.104,0.115-0.157c0.102-0.142,0.249-0.289,0.435-0.312c0.188-0.022,0.167,0.145,0.151,0.283   c-0.019,0.187-0.064,0.378,0.017,0.558c0.043,0.098,0.121,0.136,0.205,0.194c0.105,0.074,0.192,0.163,0.288,0.249   c0.292,0.268,0.65,0.112,0.986,0.045c0.331-0.065,0.649-0.187,0.985-0.229c0.216-0.027,0.432-0.006,0.648,0   c0.319,0.009,0.633-0.039,0.947-0.094c0.445-0.079,0.889-0.163,1.332-0.248c1.063-0.2,1.938-0.393,3.022-0.741l0.396-0.121   c0.416-0.126,0.834-0.25,1.234-0.422c0.333-0.144,0.632-0.352,0.97-0.485c0.16-0.063,0.492-0.139,0.435,0.147   c-0.03,0.157-0.282,0.274-0.394,0.372c-0.165,0.146-0.361,0.238-0.53,0.378c-0.059,0.048-0.106,0.112-0.169,0.154   c-0.055,0.036-0.116,0.056-0.17,0.093c-0.073,0.049-0.129,0.124-0.21,0.161c-0.138,0.064-0.308,0.069-0.451,0.127   c-0.149,0.062-0.287,0.141-0.445,0.185c-0.228,0.065-0.456,0.123-0.68,0.201c-0.564,0.199-1.151,0.34-1.735,0.469   c-0.376,0.083-0.753,0.157-1.131,0.229c-1.295,0.248-2.635,0.504-4.062,0.582c-0.069,0.003-0.14,0.005-0.207,0.005   c-0.991,0-1.727-0.371-2.035-1.034c-0.037-0.079-0.015-0.115-0.009-0.193C39.352,49.038,39.326,48.96,39.34,48.881z M54.286,48.635   c-0.093,0.123-0.19,0.248-0.302,0.355c-0.061,0.058-0.125,0.11-0.192,0.159c-0.22,0.158-0.472,0.275-0.714,0.389   c-0.278,0.131-0.53,0.306-0.811,0.434c-0.25,0.115-0.5,0.26-0.766,0.334c-0.141,0.039-0.272,0.086-0.406,0.143   c-0.281,0.117-0.61,0.259-0.912,0.293c-0.3,0.035-0.609,0.188-0.895,0.289c-0.175,0.061-0.348,0.122-0.522,0.184   c-2.191,0.772-4.26,1.502-6.709,1.889c-1.311,0.207-2.784,0.41-4.03,0.41c-0.185,0-0.365-0.005-0.538-0.014   c-0.421-0.025-1.832-0.169-2.386-0.988c-0.131-0.195-0.206-0.423-0.221-0.658c-0.01-0.155,0.006-0.323,0.052-0.472   c0.032-0.104,0.1-0.19,0.144-0.29c0.068-0.155,0.127-0.305,0.277-0.4c0.204-0.128,0.337-0.037,0.378,0.184   c0.049,0.253-0.036,0.534-0.046,0.789c-0.004,0.089-0.011,0.162,0.007,0.25c0.01,0.051,0.009,0.104,0.028,0.151   c0.088,0.223,0.361,0.327,0.563,0.41c0.254,0.104,0.521,0.169,0.789,0.213c0.152,0.024,0.305,0.042,0.458,0.05   c1.271,0.07,2.939-0.156,4.405-0.388c2.381-0.376,4.418-1.094,6.574-1.855c0.841-0.296,1.696-0.598,2.594-0.887l0.244-0.078   c0.632-0.201,1.343-0.395,1.839-0.857c0.124-0.115,0.326-0.196,0.479-0.266c0.1-0.045,0.221-0.136,0.327-0.158   c0.042-0.008,0.077,0.006,0.121,0.007c0.149,0.005,0.233-0.038,0.257,0.154C54.385,48.503,54.34,48.564,54.286,48.635z    M56.623,49.548c0.335,0.03,1.017-0.114,1.343-0.185l0.097-0.021c0.306-0.063,0.607-0.132,0.902-0.233   c0.3-0.104,0.582-0.259,0.89-0.34c0.065-0.017,0.199-0.077,0.252-0.008c0.071,0.093-0.065,0.303-0.119,0.373   c-0.101,0.133-0.246,0.222-0.368,0.333c-0.147,0.136-0.282,0.268-0.464,0.359c-0.12,0.061-0.248,0.11-0.381,0.132   c-0.311,0.052-0.623,0.093-0.935,0.139c-0.22,0.033-0.397,0.153-0.619,0.183c-0.159,0.021-0.319,0.037-0.48,0.037   c-0.069,0-0.137-0.003-0.198-0.01c-0.211-0.022-0.361-0.21-0.338-0.42C56.226,49.676,56.417,49.514,56.623,49.548z M55.253,51.795   c-0.21,0-0.381-0.172-0.38-0.383c0.001-0.209,0.172-0.379,0.381-0.379c0.112,0.019,0.264,0.001,0.395,0.001   c0.961,0,1.883-0.025,2.827-0.258c0.421-0.106,0.829-0.268,1.26-0.44c0.179-0.071,0.357-0.143,0.537-0.21   c0.248-0.093,0.495-0.198,0.722-0.337c0.065-0.039,0.123-0.09,0.187-0.13c0.113-0.071,0.216-0.118,0.321-0.212   c0.141-0.128,0.271-0.269,0.403-0.405c0.095-0.097,0.195-0.191,0.285-0.294c0.028-0.033,0.07-0.113,0.118-0.121   c0.216-0.035,0.008,0.421-0.019,0.476c-0.11,0.229-0.258,0.448-0.399,0.658c-0.157,0.231-0.391,0.403-0.606,0.576   c-0.142,0.112-0.269,0.252-0.428,0.335c-0.164,0.084-0.339,0.141-0.501,0.228c-0.141,0.075-0.258,0.138-0.419,0.159   c-0.146,0.019-0.284,0.031-0.415,0.104c-0.096,0.053-0.189,0.111-0.286,0.161c-0.334,0.167-0.73,0.24-1.096,0.305   c-0.389,0.067-0.779,0.109-1.173,0.135c-0.438,0.029-0.875,0.033-1.312,0.033C55.521,51.796,55.389,51.796,55.253,51.795z    M64.893,47.954c-0.054,0.246-0.208,0.459-0.327,0.676c-0.085,0.152-0.147,0.312-0.214,0.47c-0.046,0.11-0.092,0.22-0.148,0.326   c-0.071,0.133-0.164,0.254-0.24,0.385c-0.073,0.124-0.126,0.263-0.216,0.375c-0.171,0.211-0.435,0.331-0.614,0.54   c-0.126,0.146-0.231,0.309-0.358,0.454c-0.197,0.222-0.434,0.405-0.677,0.573c-0.311,0.213-0.633,0.403-0.98,0.55l-0.649,0.28   c-0.369,0.162-0.646,0.283-1.207,0.501c-0.141,0.057-0.289,0.099-0.437,0.14c-0.391,0.109-0.8,0.227-1.209,0.231   c-0.148,0.002-0.286,0.014-0.43,0.059c-0.222,0.069-0.424,0.149-0.662,0.106c-0.176-0.031-0.347-0.024-0.522-0.049   c-0.202-0.029-0.418-0.114-0.599-0.211c-0.116-0.062-0.102-0.118-0.015-0.21c0.191-0.205,0.469-0.245,0.735-0.252   c0.229-0.006,0.496,0.027,0.716-0.053c0.259-0.093,0.559-0.093,0.83-0.142c0.438-0.077,0.898-0.164,1.314-0.329   c0.547-0.214,0.818-0.332,1.181-0.49l0.656-0.283c0.61-0.259,1.153-0.675,1.634-1.127c0.549-0.516,1.034-1.105,1.424-1.75   c0.095-0.157,0.231-0.284,0.338-0.433c0.117-0.166,0.23-0.335,0.388-0.466c0.047-0.039,0.095-0.074,0.135-0.12   c0.021-0.024,0.05-0.089,0.085-0.097C64.95,47.582,64.904,47.896,64.893,47.954z M69.266,55.336   c-0.009,0.012-0.02,0.022-0.031,0.033c-0.09,0.08-0.25,0.116-0.35,0.171c-0.1,0.053-0.227,0.112-0.335,0.144   c-0.178,0.051-0.388-0.047-0.562-0.084c-0.215-0.046-0.08-0.219,0.009-0.314c0.2-0.215,0.682-0.341,0.965-0.254   C69.081,55.068,69.39,55.17,69.266,55.336z M70.935,53.77c-0.12,0.149-0.282,0.245-0.451,0.327   c-0.103,0.049-0.118,0.103-0.197,0.191c-0.05,0.057-0.107,0.096-0.165,0.136c-0.045,0.029-0.09,0.059-0.133,0.095   c-0.144,0.117-0.239,0.289-0.448,0.253c-0.021-0.052-0.004-0.14,0.031-0.182c0.059-0.07,0.106-0.083,0.156-0.17   c0.058-0.102,0.119-0.19,0.199-0.276c0.087-0.097,0.16-0.208,0.245-0.309c0.062-0.075,0.167-0.135,0.218-0.216   c0.06-0.094,0.051-0.201,0.143-0.285c0.111-0.104,0.365-0.164,0.47-0.019C71.089,53.433,71.017,53.669,70.935,53.77z    M73.003,51.786c-0.052,0.103-0.142,0.203-0.236,0.285c-0.034,0.03-0.069,0.059-0.103,0.083c-0.157,0.113-0.223,0.218-0.34,0.37   c-0.11,0.142-0.246,0.237-0.319,0.402c-0.068,0.149-0.165,0.276-0.312,0.36c-0.093,0.052-0.36,0.135-0.435,0.008   c-0.122-0.207,0.241-0.545,0.382-0.659c0.179-0.146,0.342-0.306,0.494-0.478c0.099-0.109,0.188-0.188,0.312-0.265   c0.138-0.085,0.242-0.22,0.385-0.297C73.012,51.498,73.087,51.615,73.003,51.786z M75.184,48.156   c-0.022,0.166,0.005,0.336-0.04,0.5c-0.066,0.233-0.157,0.444-0.29,0.644c-0.044,0.065-0.076,0.137-0.107,0.209   c-0.065,0.155-0.121,0.315-0.248,0.434c-0.026,0.024-0.065,0.021-0.104,0.062c-0.091,0.098-0.173,0.193-0.274,0.283   c-0.083,0.072-0.131,0.147-0.197,0.231c-0.085,0.109-0.198,0.173-0.293,0.248c-0.071,0.055-0.206,0.258-0.315,0.149   c-0.048-0.048-0.023-0.15-0.013-0.208c0.023-0.116,0.079-0.207,0.131-0.31c0.119-0.229,0.205-0.458,0.342-0.685   c0.098-0.162,0.204-0.316,0.313-0.47c0,0,0.103-0.143,0.103-0.144c0.052-0.072,0.066-0.152,0.109-0.223   c0.051-0.085,0.16-0.122,0.219-0.202c0.117-0.158,0.179-0.329,0.248-0.509c0.06-0.159,0.202-0.468,0.4-0.469   C75.229,47.821,75.203,48.024,75.184,48.156z M77.729,22.017c-0.066,0.088-0.166,0.104-0.229,0.189   c-0.125,0.178-0.359,0.328-0.581,0.328c-0.317,0.004-0.667-0.159-0.772-0.481c-0.119-0.343,0.104-0.957,0.425-1.139   c0.306-0.173,0.765-0.13,1.034,0.107c0.046,0.039,0.082,0.084,0.114,0.134c0.103,0.161,0.124,0.388,0.104,0.57   C77.813,21.827,77.788,21.935,77.729,22.017z M79.044,35.276c-0.034,0.138-0.129,0.255-0.286,0.234   c-0.387-0.05-0.338-0.834-0.273-1.106c0.039-0.162,0.153-0.213,0.29-0.095c0.202,0.173,0.211,0.508,0.271,0.746   C79.062,35.123,79.062,35.203,79.044,35.276z M79.401,33.916c-0.069,0.062-0.167,0.082-0.289,0.022   c-0.233-0.115-0.381-0.382-0.408-0.624c-0.014-0.134-0.104-0.244-0.093-0.381c0.014-0.172,0.165-0.378,0.349-0.311   c0.16,0.058,0.229,0.225,0.326,0.353c0.106,0.145,0.188,0.395,0.219,0.573C79.53,33.686,79.49,33.836,79.401,33.916z    M80.054,32.344c-0.025,0.108-0.039,0.286-0.143,0.356c-0.025,0.018-0.052,0.029-0.078,0.037c-0.146,0.039-0.293-0.064-0.343-0.204   c-0.083-0.234-0.087-0.444-0.087-0.695c-0.001-0.181,0.025-0.342,0.176-0.462c0.241-0.192,0.311,0.197,0.385,0.344   C80.071,31.932,80.111,32.101,80.054,32.344z M80.997,31.301c0.006,0.094-0.011,0.193-0.056,0.279   c-0.027,0.053-0.063,0.1-0.111,0.138c-0.071,0.058-0.177,0.108-0.27,0.074c-0.101-0.036-0.104-0.13-0.148-0.213   c-0.108-0.204-0.247-0.417-0.18-0.663c0.07-0.255,0.234-0.476,0.277-0.74c0.031-0.194,0.096-0.341,0.159-0.525   c0.034-0.101,0.04-0.315,0.167-0.349c0.246-0.064,0.153,0.431,0.149,0.541C80.963,30.331,80.96,30.816,80.997,31.301z"/><path d="M30.813,60.571c-0.011-0.003-0.027,0.003-0.04,0.002l0.007,0.028C30.793,60.592,30.806,60.584,30.813,60.571z"/></g></g><g id="SvgjsG5810" featureKey="nameFeature-0" transform="matrix(1.60462137335508,0,0,1.60462137335508,106,-11.100124072106595)" fill="#fff"><path d="M7.96 40 l-3.96 0 l-4 -28.56 l3.84 0 l2.08 14.72 l1.92 -14.72 l3.84 0 z M22.72 24.92 l-5.52 0 l0 11.28 l5.56 0 l0 3.8 l-9.36 0 l0 -28.56 l9.36 0 l0 3.8 l-5.56 0 l0 5.88 l5.52 0 l0 3.8 z M28.56 11.36 l0 28.48 l-3.8 0 l0 -28.48 l3.8 0 z M34.32 36.24 l5.52 0 l0 3.76 l-9.28 0 l0 -28.72 l3.76 0 l0 24.96 z M55.239999999999995 40.04 c-3 0 -5.4 -2.44 -5.4 -5.4 l0 -17.96 c0 -2.96 2.4 -5.36 5.4 -5.36 c2.96 0 5.36 2.4 5.36 5.36 l0 17.96 c0 2.96 -2.4 5.4 -5.36 5.4 z M55.239999999999995 15.120000000000001 c-0.88 0 -1.56 0.72 -1.56 1.56 l0 17.96 c0 0.88 0.68 1.56 1.56 1.56 c0.84 0 1.56 -0.68 1.56 -1.56 l0 -17.96 c0 -0.84 -0.72 -1.56 -1.56 -1.56 z M72 21.24 l0 3.76 l-5.64 0 l0 14.92 l-3.76 0 l0 -28.48 l9.32 0 l0 3.8 l-5.56 0 l0 6 l5.64 0 z M91.32 24.92 l-5.52 0 l0 11.28 l5.56 0 l0 3.8 l-9.36 0 l0 -28.56 l9.36 0 l0 3.8 l-5.56 0 l0 5.88 l5.52 0 l0 3.8 z M107.2 11.36 l0 3.84 l-4.76 0 l0 24.84 l-3.84 0 l0 -24.84 l-5.24 0 l0 -3.84 l13.84 0 z M118.52000000000001 24.92 l-5.52 0 l0 11.28 l5.56 0 l0 3.8 l-9.36 0 l0 -28.56 l9.36 0 l0 3.8 l-5.56 0 l0 5.88 l5.52 0 l0 3.8 z M131.52 40.08 l-4.08 0 l-2.2 -6.04 l-0.88 0 l0 6.04 l-3.8 0 l0 -28.64 l5.96 0 c2.64 0 4.76 2.12 4.76 4.76 l0 13.08 c0 1.72 -0.88 3.2 -2.24 4.04 z M124.36 15.239999999999998 l0 15 l2.16 0 c0.52 0 0.96 -0.44 0.96 -0.96 l0 -13.08 c0 -0.52 -0.44 -0.96 -0.96 -0.96 l-2.16 0 z M142.8 33.44 l0.16 -22.16 l3.84 0 l-0.24 28.88 l-5.96 0 l-3.24 -22.36 l0 22.36 l-3.84 0 l0 -28.88 l6.2 0 z M152.60000000000002 11.36 l0 28.48 l-3.8 0 l0 -28.48 l3.8 0 z M168.44000000000003 11.36 l0 3.84 l-4.76 0 l0 24.84 l-3.84 0 l0 -24.84 l-5.24 0 l0 -3.84 l13.84 0 z M183.68000000000004 11.440000000000001 l-5.36 17.36 l0 11.2 l-3.88 0 l0 -11.24 l-4.92 -17.32 l4 0 l2.92 10.28 l3.2 -10.28 l4.04 0 z"/></g><g id="SvgjsG5811" featureKey="sloganFeature-0" transform="matrix(0.5769850528327793,0,0,0.5769850528327793,105.421151574595,70.19159496174447)" fill="#fff"><path d="M8.9 7.359999999999999 c0.02 -0.66 0 -1.2 0 -1.84 c0 -0.74 -1.34 -0.66 -1.82 -0.64 c-2.14 0.14 -4.18 1.5 -5.16 3.36 c-0.28 0.54 -0.48 1.1 -0.62 1.68 c-0.34 1.36 -0.36 2.8 -0.2 4.18 c0.14 1.3 0.48 2.6 1.28 3.64 c1.38 1.82 3.92 2.46 6.1 2.12 c0.1 -0.02 0.2 -0.04 0.28 -0.1 c0.06 -0.04 0.12 -0.12 0.12 -0.2 l0.06 -1.14 c0.02 -0.36 0 -0.34 0 -0.7 c0 -0.48 -1 -0.12 -1.62 -0.12 c-0.6 0 -1.24 -0.02 -1.78 -0.3 c-0.96 -0.54 -1.5 -1.62 -1.8 -2.64 c-0.34 -1.1 -0.42 -2.28 -0.22 -3.4 c0.24 -1.46 0.94 -3.14 2.48 -3.64 c0.88 -0.3 1.82 -0.2 2.7 -0.1 c0.12 0.02 0.2 -0.06 0.2 -0.16 z M31.037999999999997 14.08 c0 0.9 -0.02 2.68 -0.04 2.68 l0 2.72 c0 0.12 -0.02 0.32 0.04 0.44 c0.06 0.14 0.24 0.1 0.36 0.08 c0.58 -0.06 1.16 0.02 1.74 0 c0.64 -0.02 0.44 -1 0.42 -1.4 c-0.08 -0.88 0.02 -7.58 0.02 -9.98 c0 -1.08 -0.04 -3.3 -0.1 -3.4 c-0.1 -0.18 -0.36 -0.22 -0.56 -0.24 c-0.44 -0.08 -0.66 0.04 -1.32 0.04 s-0.7 0.2 -0.7 0.9 l0 0.6 c-0.02 0.48 0.06 3.84 0.06 4.38 c0 0.26 -0.02 0.28 -0.28 0.28 c-0.66 -0.02 -1.58 0.06 -2.26 0 c-0.98 -0.08 -0.76 0 -0.82 -0.9 l0 -0.12 c0 -1.28 0.16 -4.6 0.1 -4.8 c-0.1 -0.3 -0.22 -0.36 -0.48 -0.34 c-0.6 0.04 -1.22 -0.06 -1.82 -0.02 c-0.2 0.02 -0.26 0.08 -0.32 0.28 c-0.02 0.1 -0.04 0.2 -0.04 0.3 c0 0.62 0.04 1.46 0.06 2.08 l-0.06 11.86 c0 0.52 0.46 0.46 1.48 0.46 c0.94 0 1.18 0.22 1.18 -0.9 c0 -0.9 -0.06 -2.04 -0.04 -2.94 c0.02 -0.7 0 -1.38 0 -2.08 c0.02 -0.26 0.08 -0.34 0.32 -0.34 c0.88 -0.02 1.84 0 2.72 0 c0.28 0 0.34 0.04 0.34 0.36 z M52.175999999999995 18.5 c0 -0.52 0 -3.8 0.02 -4.06 c0.02 -0.06 0.06 -0.18 0.14 -0.18 s0.12 0.04 0.14 0.1 c0.8 1.56 1.5 3.12 2.22 4.64 c0.1 0.22 0.32 0.86 0.38 0.92 c0.08 0.12 0.22 0.08 0.34 0.08 l2.2 0.02 c0.26 0 0.32 -0.16 0.26 -0.38 c-0.16 -0.6 -1.3 -2.72 -1.56 -3.24 c-0.18 -0.4 -1.38 -2.72 -1.42 -2.9 c-0.04 -0.08 0.26 -0.22 0.3 -0.28 c0.96 -0.86 1.82 -1.74 2 -3.08 c0.2 -1.32 -0.1 -2.76 -0.96 -3.82 c-0.66 -0.78 -1.52 -1.24 -2.54 -1.3 c-0.62 -0.04 -1.22 0.02 -1.84 0 c-0.54 -0.02 -0.92 -0.02 -1.6 -0.02 c-0.32 0 -0.52 0.18 -0.54 0.52 l0 0.24 c-0.04 1.54 0 3.08 0.02 4.6 c0 2.32 -0.04 8.44 -0.04 9.32 c0 0.26 0.04 0.32 0.28 0.32 c0.14 0 0.3 0.02 0.44 0.02 c0.56 0 0.9 -0.02 1.48 -0.02 c0.44 0 0.28 -0.72 0.28 -1.5 z M52.175999999999995 10.7 l0.02 -2.02 c0.02 -0.3 -0.08 -0.9 0.2 -1.12 c0.38 -0.28 1.16 0 1.5 0.24 c1 0.68 0.92 2.36 0.38 3.3 c-0.26 0.44 -0.7 0.7 -1.2 0.84 c-0.3 0.08 -0.86 0.18 -0.88 -0.3 c0 -0.32 -0.02 -0.94 -0.02 -0.94 z M84.53399999999999 8.68 c0.42 1.24 0.52 2.58 0.52 3.9 c0 1.1 -0.2 2.16 -0.48 3.22 c-0.36 1.26 -0.96 2.4 -2.04 3.14 c-0.8 0.58 -1.64 0.96 -2.62 1.06 c-0.14 0 -0.26 0.02 -0.4 0.02 c-0.12 0 -0.24 -0.02 -0.38 -0.02 c-0.98 -0.1 -1.82 -0.48 -2.64 -1.06 c-1.06 -0.74 -1.68 -1.88 -2.02 -3.14 c-0.3 -1.06 -0.48 -2.12 -0.48 -3.22 c0 -1.32 0.1 -2.66 0.52 -3.9 c0.74 -2.14 2.78 -3.66 5 -3.7 c2.22 0.04 4.26 1.56 5.02 3.7 z M82.594 14.04 c0.2 -1.22 0.12 -2.46 -0.12 -3.68 c-0.24 -1.1 -0.72 -2.18 -1.64 -2.84 c-0.16 -0.12 -0.34 -0.22 -0.52 -0.28 c-0.26 -0.12 -0.54 -0.16 -0.8 -0.16 s-0.52 0.04 -0.78 0.16 c-0.2 0.06 -0.36 0.16 -0.52 0.28 c-0.94 0.66 -1.42 1.74 -1.64 2.84 c-0.24 1.22 -0.32 2.46 -0.12 3.68 c0.2 1.1 0.6 2.58 1.64 3.14 c0.44 0.24 0.92 0.4 1.42 0.42 c0.5 -0.02 1 -0.18 1.44 -0.42 c1.04 -0.56 1.44 -2.04 1.64 -3.14 z M109.672 5.460000000000001 c0.06 0.28 0.02 13.6 0.02 13.94 c0 0.6 -0.22 0.58 -0.62 0.58 c-0.6 0 -1.44 0.1 -1.62 -0.1 c-0.16 -0.14 -3.12 -7.28 -3.54 -8.18 c-0.04 -0.08 -0.14 -0.28 -0.22 -0.24 c-0.1 0.04 -0.06 0.18 -0.06 0.26 c-0.02 0.7 0.1 6.74 0.1 7.7 c0 0.48 -0.02 0.56 -0.42 0.56 l-1 0 c-0.26 0 -0.58 -0.02 -0.84 0.02 c-0.2 0 -0.3 -0.06 -0.32 -0.26 l0 -1.58 c0.04 -1.68 0 -11.64 0 -12.38 c0 -0.64 0.18 -0.76 0.82 -0.76 c0.44 -0.02 0.88 -0.02 1.32 -0.02 c0.14 0 0.22 0.02 0.3 0.2 c0.54 1.26 2.84 7.04 3.2 7.74 c0.06 0.14 0.28 0.7 0.4 0.76 l0.02 0 c0.08 -0.08 0.06 -0.48 0.06 -0.6 c0 -0.3 -0.16 -7.32 -0.16 -7.46 c0 -0.2 -0.06 -0.38 0.04 -0.52 c0.06 -0.08 0.32 -0.1 0.42 -0.12 c0.56 -0.04 1.22 0.02 1.78 0 c0.28 0 0.26 0.2 0.32 0.46 z M128.57 14.84 c-0.06 -2.28 -0.04 -4.7 -0.02 -6.96 c0 -0.7 -0.04 -1.46 -0.04 -2.16 c0 -0.76 -0.3 -0.72 -0.7 -0.74 c-0.58 -0.02 -0.84 -0.02 -1.42 -0.02 c-0.38 -0.02 -0.54 0.08 -0.54 0.46 c0 1.96 -0.06 7.5 -0.04 8.3 s0.1 4.44 0.06 5.24 c-0.02 0.28 0 0.56 0.02 0.84 c0.02 0.1 0.08 0.2 0.24 0.2 c0.66 -0.04 1.28 -0.04 1.94 -0.06 c0.24 -0.02 0.44 -0.08 0.54 -0.34 c0.02 -0.14 -0.04 -3.8 -0.04 -4.76 z M152.608 7.359999999999999 c0.02 -0.66 0 -1.2 0 -1.84 c0 -0.74 -1.34 -0.66 -1.82 -0.64 c-2.14 0.14 -4.18 1.5 -5.16 3.36 c-0.28 0.54 -0.48 1.1 -0.62 1.68 c-0.34 1.36 -0.36 2.8 -0.2 4.18 c0.14 1.3 0.48 2.6 1.28 3.64 c1.38 1.82 3.92 2.46 6.1 2.12 c0.1 -0.02 0.2 -0.04 0.28 -0.1 c0.06 -0.04 0.12 -0.12 0.12 -0.2 l0.06 -1.14 c0.02 -0.36 0 -0.34 0 -0.7 c0 -0.48 -1 -0.12 -1.62 -0.12 c-0.6 0 -1.24 -0.02 -1.78 -0.3 c-0.96 -0.54 -1.5 -1.62 -1.8 -2.64 c-0.34 -1.1 -0.42 -2.28 -0.22 -3.4 c0.24 -1.46 0.94 -3.14 2.48 -3.64 c0.88 -0.3 1.82 -0.2 2.7 -0.1 c0.12 0.02 0.2 -0.06 0.2 -0.16 z M168.74599999999998 6.960000000000001 c-0.02 1.24 0.1 10.3 0.08 10.96 c0 0.62 0 1.24 0.02 1.86 c0 0.1 0.06 0.2 0.16 0.2 c1.4 0.06 2.78 -0.06 4.18 -0.04 c0.46 0.02 0.92 0 1.36 0 c0.44 -0.02 0.48 -0.2 0.46 -0.56 c-0.02 -0.56 -0.02 -1.06 -0.02 -1.6 c-0.02 -0.28 -0.18 -0.38 -0.42 -0.38 c-0.82 0.02 -1.64 -0.02 -2.46 0.02 c-0.14 0.02 -0.28 0.02 -0.42 0.02 c-0.24 -0.02 -0.3 -0.08 -0.32 -0.34 l0 -0.3 c-0.06 -1.66 0.06 -3.38 0.06 -5.04 c-0.02 -1.4 0 -2.66 -0.02 -3.9 c0 -0.54 0 -1.08 -0.02 -1.6 c-0.02 -0.32 0 -0.66 -0.08 -0.98 c-0.04 -0.12 -0.1 -0.28 -0.24 -0.28 l-1.88 0 c-0.32 0 -0.42 0.22 -0.44 0.54 l0 1.42 z M191.124 15.9 l-0.02 0 c0 0.5 -0.02 1.02 0 1.54 c0.02 0.64 0.06 1.28 0.1 1.92 c0 0.22 0.06 0.28 0.26 0.32 c0.42 0.1 0.82 0.12 1.24 0.12 c1.08 -0.04 2.16 0.04 3.24 0 c0.44 -0.02 0.64 0.02 1.08 -0.06 c0.4 -0.08 0.54 -0.3 0.54 -0.9 c-0.04 -0.38 -0.02 -0.54 -0.02 -1 c0 -0.66 -0.46 -0.88 -0.86 -0.86 c-0.28 0.02 -1.62 -0.02 -2.16 -0.02 c-0.9 0.02 -0.76 0.14 -0.76 -0.8 c0 -0.76 0.02 -1.74 0.02 -2.52 c0 -0.42 0.04 -0.56 0.44 -0.56 l2.5 0 c0.4 0.06 0.68 -0.22 0.68 -0.64 s0.04 -0.44 0.04 -0.86 l-0.06 -0.6 c-0.04 -0.34 -0.16 -0.46 -0.5 -0.46 c-0.22 0 -0.44 0.02 -0.66 0.04 c-0.86 0.06 -1.26 -0.06 -2.1 0 c-0.28 0 -0.32 -0.04 -0.34 -0.3 c-0.08 -0.78 0 -1.64 0.08 -2.42 c0.02 -0.32 0.1 -0.38 0.4 -0.4 l2.82 -0.02 c0.38 -0.04 0.5 -0.02 0.48 -0.4 c-0.04 -0.58 0.02 -1.18 -0.04 -1.76 c-0.04 -0.32 -0.14 -0.38 -0.5 -0.38 c-0.6 0.02 -0.74 0.02 -1.34 0.06 c-0.6 0.02 -3 0.02 -3.58 0.02 c-0.84 0 -0.9 -0.06 -0.92 0.96 c-0.04 0.8 -0.02 1.62 -0.02 2.44 c0 1.4 -0.08 6.42 -0.04 7.54 z M217.742 4.9 c-0.38 0.02 -0.76 0.08 -1.14 0.2 c-0.82 0.28 -1.56 0.84 -2.06 1.56 c-0.44 0.66 -0.62 1.44 -0.68 2.22 c-0.04 0.6 0.02 1.22 0.3 1.76 c0.3 0.58 0.82 1.08 1.26 1.56 c0.4 0.42 0.8 0.84 1.24 1.22 c0.4 0.38 0.86 0.68 1.26 1.08 c0.58 0.58 0.8 1.9 0.38 2.62 c-0.5 0.8 -1.68 0.92 -2.46 0.66 c-0.4 -0.14 -0.76 -0.44 -1.1 -0.68 c-0.2 -0.14 -0.44 -0.2 -0.58 0.04 c-0.08 0.12 -0.12 0.26 -0.16 0.38 c-0.14 0.5 -0.32 0.96 -0.34 1.5 c-0.02 0.62 1.16 0.8 1.6 0.9 c1.96 0.46 4.32 0.1 5.34 -1.84 c0.2 -0.4 0.34 -0.82 0.42 -1.26 c0.02 -0.16 0.04 -0.3 0.04 -0.46 c0.08 -1.28 -0.44 -2.36 -1.22 -3.32 c-0.84 -1.04 -1.9 -1.76 -2.88 -2.66 c-0.6 -0.56 -0.82 -1.44 -0.64 -2.24 c0.18 -0.86 1.16 -1.08 1.9 -0.86 c0.22 0.06 0.4 0.16 0.6 0.28 c0.12 0.06 0.24 0.14 0.4 0.14 c0.28 0.02 0.32 -0.2 0.38 -0.42 c0.14 -0.5 0.38 -0.9 0.48 -1.38 c0.1 -0.54 -0.34 -0.64 -0.78 -0.78 c-0.52 -0.14 -1.02 -0.24 -1.56 -0.22 z M266.798 8.68 c0.42 1.24 0.52 2.58 0.52 3.9 c0 1.1 -0.2 2.16 -0.48 3.22 c-0.36 1.26 -0.96 2.4 -2.04 3.14 c-0.8 0.58 -1.64 0.96 -2.62 1.06 c-0.14 0 -0.26 0.02 -0.4 0.02 c-0.12 0 -0.24 -0.02 -0.38 -0.02 c-0.98 -0.1 -1.82 -0.48 -2.64 -1.06 c-1.06 -0.74 -1.68 -1.88 -2.02 -3.14 c-0.3 -1.06 -0.48 -2.12 -0.48 -3.22 c0 -1.32 0.1 -2.66 0.52 -3.9 c0.74 -2.14 2.78 -3.66 5 -3.7 c2.22 0.04 4.26 1.56 5.02 3.7 z M264.858 14.04 c0.2 -1.22 0.12 -2.46 -0.12 -3.68 c-0.24 -1.1 -0.72 -2.18 -1.64 -2.84 c-0.16 -0.12 -0.34 -0.22 -0.52 -0.28 c-0.26 -0.12 -0.54 -0.16 -0.8 -0.16 s-0.52 0.04 -0.78 0.16 c-0.2 0.06 -0.36 0.16 -0.52 0.28 c-0.94 0.66 -1.42 1.74 -1.64 2.84 c-0.24 1.22 -0.32 2.46 -0.12 3.68 c0.2 1.1 0.6 2.58 1.64 3.14 c0.44 0.24 0.92 0.4 1.42 0.42 c0.5 -0.02 1 -0.18 1.44 -0.42 c1.04 -0.56 1.44 -2.04 1.64 -3.14 z M283.436 15.9 l-0.02 0 c0 0.5 -0.02 1.02 0 1.54 c0.02 0.64 0.04 1.28 0.08 1.92 c0.02 0.22 0.06 0.28 0.28 0.32 c0.4 0.1 0.82 0.12 1.24 0.12 c1.08 -0.04 1.08 -0.22 1.08 -0.96 c-0.04 -0.38 -0.02 -0.54 -0.02 -1 c0 -0.66 -0.02 -0.74 -0.02 -1.68 c0.02 -0.76 0.02 -1.74 0.02 -2.52 c0 -0.42 0.06 -0.56 0.44 -0.56 l2.92 0 c0.42 0.06 0.26 -0.22 0.26 -0.64 s0.06 -0.44 0.04 -0.86 c0 -0.2 -0.04 -0.4 -0.06 -0.6 c-0.04 -0.34 -0.16 -0.46 -0.5 -0.46 c-0.22 0 -0.02 0.02 -0.22 0.04 c-0.86 0.06 -1.68 -0.06 -2.54 0 c-0.28 0 -0.32 -0.04 -0.34 -0.3 c-0.06 -0.78 0 -1.64 0.08 -2.42 c0.04 -0.32 0.1 -0.38 0.4 -0.4 l2.82 -0.02 c0.4 -0.04 0.52 -0.02 0.48 -0.4 c-0.04 -0.58 0.04 -1.18 -0.04 -1.76 c-0.04 -0.32 -0.12 -0.38 -0.48 -0.38 c-0.6 0.02 -0.74 0.02 -1.34 0.06 c-0.6 0.02 -3.02 0.02 -3.6 0.02 c-0.82 0 -0.9 -0.06 -0.92 0.96 c-0.02 0.8 -0.02 1.62 -0.02 2.44 c0 1.4 -0.08 6.42 -0.02 7.54 z M327.77200000000005 16.38 c0 -0.7 -0.1 -2.6 -0.08 -3 c0 -0.06 0.04 -0.14 0.06 -0.14 c0.04 0 0.12 0.04 0.14 0.06 c0.64 0.84 3.64 6.66 4 6.68 c0.1 0.02 0.2 0.02 0.3 0.02 c0.68 -0.04 1.28 0 1.96 0 c0.7 0 0.24 -0.68 0.12 -0.86 c-0.18 -0.26 -2.56 -4.52 -2.7 -4.78 c-0.4 -0.68 -0.74 -1.42 -1.14 -2.08 c-0.04 -0.08 -0.08 -0.2 -0.06 -0.28 c0.04 -0.24 0.1 -0.46 0.2 -0.68 c0.48 -0.94 0.98 -1.9 1.56 -2.8 c0.64 -1.02 1 -1.66 1.52 -2.58 c0.12 -0.22 0.2 -0.46 0.28 -0.72 c0.02 -0.1 -0.06 -0.2 -0.18 -0.2 c-0.38 -0.02 -1.76 0 -2.2 0 c-0.2 0 -0.4 0.04 -0.5 0.22 c-0.26 0.5 -2.94 5.4 -3.2 5.84 c-0.02 0.04 -0.08 0.06 -0.14 0.06 c0 0 -0.04 -0.06 -0.04 -0.1 c-0.02 -1.12 0.18 -4.78 0.14 -5.52 c-0.02 -0.44 -0.1 -0.48 -0.54 -0.5 c-0.48 -0.02 -1.14 -0.02 -1.62 -0.02 c-0.44 0 -0.48 0.24 -0.54 0.56 c-0.02 0.06 -0.02 1.94 -0.02 2.78 c0 1.22 -0.1 8.86 0.04 11.28 c0 0.24 0.06 0.38 0.26 0.38 c0.54 -0.04 1.34 0 1.88 0 c0.38 0 0.44 -0.04 0.44 -0.68 c0 -0.86 0.08 -1.64 0.08 -2.7 c0 -0.08 -0.02 -0.16 -0.02 -0.24 z M358.53 7.359999999999999 c0.02 -0.66 0 -1.2 0 -1.84 c0 -0.74 -1.34 -0.66 -1.82 -0.64 c-2.14 0.14 -4.18 1.5 -5.16 3.36 c-0.28 0.54 -0.48 1.1 -0.62 1.68 c-0.34 1.36 -0.36 2.8 -0.2 4.18 c0.14 1.3 0.48 2.6 1.28 3.64 c1.38 1.82 3.92 2.46 6.1 2.12 c0.1 -0.02 0.2 -0.04 0.28 -0.1 c0.06 -0.04 0.12 -0.12 0.12 -0.2 l0.06 -1.14 c0.02 -0.36 0 -0.34 0 -0.7 c0 -0.48 -1 -0.12 -1.62 -0.12 c-0.6 0 -1.24 -0.02 -1.78 -0.3 c-0.96 -0.54 -1.5 -1.62 -1.8 -2.64 c-0.34 -1.1 -0.42 -2.28 -0.22 -3.4 c0.24 -1.46 0.94 -3.14 2.48 -3.64 c0.88 -0.3 1.82 -0.2 2.7 -0.1 c0.12 0.02 0.2 -0.06 0.2 -0.16 z"/></g>
			</g>
		</svg>
	